<svg width="139" height="20" viewBox="0 0 139 20" fill="none" xmlns="http://www.w3.org/2000/svg">
<path d="M15.46 15.96C14.78 16.7 13.98 17.08 13.06 17.08C12.24 17.08 11.52 16.76 10.72 15.9C13.84 15.02 15.96 12.38 15.96 9C15.96 4.84 12.76 1.8 8.42 1.8C4.08 1.8 0.88 4.86 0.88 9C0.88 12.88 3.7 15.82 7.62 16.16C9.68 18.32 11.1 19.06 13 19.06C14.48 19.06 15.74 18.48 16.66 17.4L15.46 15.96ZM3.5 9C3.5 6.14 5.6 4.08 8.42 4.08C11.24 4.08 13.34 6.14 13.34 9C13.34 11.86 11.24 13.92 8.42 13.92C5.6 13.92 3.5 11.86 3.5 9ZM26.3159 5.32V10.72C26.3159 12.86 25.1359 13.94 23.3959 13.94C21.8159 13.94 20.8959 13.02 20.8959 11.08V5.32H18.3959V11.42C18.3959 14.64 20.2559 16.14 22.9959 16.14C24.3759 16.14 25.6359 15.62 26.4359 14.64V16H28.8159V5.32H26.3159ZM33.3492 3.56C34.2892 3.56 34.9492 2.88 34.9492 2C34.9492 1.18 34.2692 0.56 33.3492 0.56C32.4292 0.56 31.7492 1.22 31.7492 2.06C31.7492 2.9 32.4292 3.56 33.3492 3.56ZM32.0892 16H34.5892V5.32H32.0892V16ZM42.7705 16.14C44.8505 16.14 46.5105 15.24 47.3305 13.64L45.4105 12.52C44.7705 13.54 43.8105 14 42.7505 14C40.9105 14 39.5105 12.74 39.5105 10.66C39.5105 8.6 40.9105 7.32 42.7505 7.32C43.8105 7.32 44.7705 7.78 45.4105 8.8L47.3305 7.68C46.5105 6.06 44.8505 5.2 42.7705 5.2C39.3905 5.2 36.9905 7.46 36.9905 10.66C36.9905 13.86 39.3905 16.14 42.7705 16.14ZM57.4539 16H60.4939L55.6139 9.8L60.0739 5.32H57.0739L51.8939 10.12V1.16H49.3939V16H51.8939V13.18L53.7539 11.42L57.4539 16ZM67.8761 16H70.4761V2H67.8761V16ZM80.0828 5.2C78.5228 5.2 77.2228 5.72 76.4028 6.7V5.32H74.0228V16H76.5228V10.6C76.5228 8.46 77.7228 7.38 79.5028 7.38C81.1028 7.38 82.0428 8.3 82.0428 10.2V16H84.5428V9.88C84.5428 6.66 82.6428 5.2 80.0828 5.2ZM95.1189 5.32L91.6989 13.24L88.3789 5.32H85.7789L90.3589 16H92.9389L97.5189 5.32H95.1189ZM103.588 16.14C106.908 16.14 109.288 13.86 109.288 10.66C109.288 7.46 106.908 5.2 103.588 5.2C100.308 5.2 97.9084 7.46 97.9084 10.66C97.9084 13.86 100.308 16.14 103.588 16.14ZM103.588 14C101.788 14 100.428 12.7 100.428 10.66C100.428 8.62 101.788 7.32 103.588 7.32C105.408 7.32 106.768 8.62 106.768 10.66C106.768 12.7 105.408 14 103.588 14ZM112.939 3.56C113.879 3.56 114.539 2.88 114.539 2C114.539 1.18 113.859 0.56 112.939 0.56C112.019 0.56 111.339 1.22 111.339 2.06C111.339 2.9 112.019 3.56 112.939 3.56ZM111.679 16H114.179V5.32H111.679V16ZM122.36 16.14C124.44 16.14 126.1 15.24 126.92 13.64L125 12.52C124.36 13.54 123.4 14 122.34 14C120.5 14 119.1 12.74 119.1 10.66C119.1 8.6 120.5 7.32 122.34 7.32C123.4 7.32 124.36 7.78 125 8.8L126.92 7.68C126.1 6.06 124.44 5.2 122.36 5.2C118.98 5.2 116.58 7.46 116.58 10.66C116.58 13.86 118.98 16.14 122.36 16.14ZM138.965 10.72C138.965 7.38 136.685 5.2 133.565 5.2C130.385 5.2 128.045 7.48 128.045 10.66C128.045 13.84 130.365 16.14 133.945 16.14C135.785 16.14 137.285 15.54 138.245 14.4L136.905 12.86C136.145 13.64 135.205 14.02 134.005 14.02C132.145 14.02 130.845 13.02 130.545 11.46H138.925C138.945 11.22 138.965 10.92 138.965 10.72ZM133.565 7.2C135.205 7.2 136.385 8.26 136.585 9.8H130.525C130.765 8.24 131.945 7.2 133.565 7.2Z" fill="#064061"/>
</svg>
